<svg xmlns="http://www.w3.org/2000/svg" viewBox="0 0 720 420" role="img" aria-label="Four coordinate line choices for inequality">
  <rect width="720" height="420" rx="28" fill="#f5f3ff"/>
  <g font-family="Arial, sans-serif" font-weight="800" font-size="24" fill="#1e1b4b">
    <text x="55" y="75">A)</text><text x="55" y="155">B)</text><text x="55" y="235">C)</text><text x="55" y="315">D)</text>
  </g>
  <g transform="translate(120 0)" stroke="#1e1b4b" stroke-width="4" stroke-linecap="round">
    <g transform="translate(0 65)">
      <line x1="0" y1="0" x2="500" y2="0"/><path d="M500 0l-14-9v18z" fill="#1e1b4b"/>
      <circle cx="180" cy="0" r="12" fill="#fff" stroke="#6d28d9" stroke-width="5"/>
      <line x1="192" y1="0" x2="500" y2="0" stroke="#6d28d9" stroke-width="8"/>
      <text x="180" y="38" text-anchor="middle" font-family="Arial" font-size="20" fill="#1e1b4b">-2</text>
    </g>
    <g transform="translate(0 145)">
      <line x1="0" y1="0" x2="500" y2="0"/><path d="M0 0l14-9v18z" fill="#1e1b4b"/>
      <circle cx="180" cy="0" r="12" fill="#fff" stroke="#6d28d9" stroke-width="5"/>
      <line x1="0" y1="0" x2="168" y2="0" stroke="#6d28d9" stroke-width="8"/>
      <text x="180" y="38" text-anchor="middle" font-family="Arial" font-size="20" fill="#1e1b4b">-2</text>
    </g>
    <g transform="translate(0 225)">
      <line x1="0" y1="0" x2="500" y2="0"/><path d="M500 0l-14-9v18z" fill="#1e1b4b"/>
      <circle cx="180" cy="0" r="12" fill="#6d28d9" stroke="#6d28d9" stroke-width="5"/>
      <line x1="180" y1="0" x2="500" y2="0" stroke="#6d28d9" stroke-width="8"/>
      <text x="180" y="38" text-anchor="middle" font-family="Arial" font-size="20" fill="#1e1b4b">-2</text>
    </g>
    <g transform="translate(0 305)">
      <line x1="0" y1="0" x2="500" y2="0"/><path d="M0 0l14-9v18z" fill="#1e1b4b"/>
      <circle cx="180" cy="0" r="12" fill="#6d28d9" stroke="#6d28d9" stroke-width="5"/>
      <line x1="0" y1="0" x2="180" y2="0" stroke="#6d28d9" stroke-width="8"/>
      <text x="180" y="38" text-anchor="middle" font-family="Arial" font-size="20" fill="#1e1b4b">-2</text>
    </g>
  </g>
</svg>
